<svg width="24" height="24" viewBox="0 0 24 24" fill="none" xmlns="http://www.w3.org/2000/svg">
<g id="icon-park-outline:good-two">
<path id="Vector" d="M2.09359 11.0865C2.0816 10.9484 2.09845 10.8094 2.14305 10.6782C2.18766 10.5469 2.25905 10.4264 2.3527 10.3243C2.44636 10.2221 2.56022 10.1405 2.68707 10.0847C2.81393 10.0289 2.951 10 3.08959 10H4.99909C5.26431 10 5.51866 10.1054 5.7062 10.2929C5.89373 10.4804 5.99909 10.7348 5.99909 11V20.5C5.99909 20.7652 5.89373 21.0196 5.7062 21.2071C5.51866 21.3946 5.26431 21.5 4.99909 21.5H3.91609C3.66581 21.5001 3.4246 21.4063 3.2401 21.2371C3.05561 21.068 2.94124 20.8358 2.91959 20.5865L2.09359 11.0865ZM8.99909 10.6875C8.99909 10.2695 9.25909 9.8955 9.63659 9.7175C10.4611 9.3285 11.8656 8.547 12.4991 7.4905C13.3156 6.1285 13.4696 3.668 13.4946 3.1045C13.4981 3.0255 13.4961 2.9465 13.5066 2.8685C13.6421 1.892 15.5266 3.0325 16.2491 4.2385C16.6416 4.8925 16.6916 5.752 16.6506 6.4235C16.6061 7.1415 16.3956 7.835 16.1891 8.524L15.7491 9.9925H21.1776C21.3321 9.99249 21.4845 10.0283 21.6228 10.0971C21.7612 10.1658 21.8817 10.2658 21.975 10.3889C22.0682 10.5121 22.1317 10.6553 22.1603 10.8071C22.189 10.9589 22.182 11.1153 22.1401 11.264L19.4551 20.772C19.3958 20.9817 19.2697 21.1663 19.0958 21.2977C18.922 21.4291 18.71 21.5001 18.4921 21.5H9.99909C9.73388 21.5 9.47952 21.3946 9.29199 21.2071C9.10445 21.0196 8.99909 20.7652 8.99909 20.5V10.6875Z" stroke="black" stroke-width="2" stroke-linecap="round" stroke-linejoin="round"/>
</g>
</svg>
