<svg width="24" height="24" viewBox="0 0 24 24" fill="none" xmlns="http://www.w3.org/2000/svg">
<g id="icon-park-outline:bad-two">
<path id="Vector" d="M2.08939 13.417C2.0779 13.5549 2.09517 13.6937 2.14009 13.8246C2.18502 13.9555 2.25663 14.0757 2.35039 14.1775C2.44415 14.2793 2.55802 14.3605 2.6848 14.416C2.81157 14.4715 2.94849 14.5001 3.08689 14.5H4.99939C5.2646 14.5 5.51896 14.3946 5.70649 14.2071C5.89403 14.0196 5.99939 13.7652 5.99939 13.5V3.5C5.99939 3.23478 5.89403 2.98043 5.70649 2.79289C5.51896 2.60536 5.2646 2.5 4.99939 2.5H3.91939C3.66855 2.50001 3.42687 2.5943 3.24229 2.76415C3.05771 2.934 2.94371 3.16703 2.92289 3.417L2.08939 13.417ZM8.99939 13.313C8.99939 13.7305 9.25939 14.1045 9.63689 14.283C10.4614 14.6715 11.8659 15.453 12.4994 16.51C13.3159 17.8715 13.4699 20.332 13.4949 20.8955C13.4984 20.9745 13.4964 21.0535 13.5069 21.1315C13.6424 22.108 15.5269 20.9675 16.2494 19.7615C16.6419 19.1075 16.6919 18.248 16.6509 17.5765C16.6064 16.859 16.3959 16.165 16.1894 15.476L15.7494 14.0075H21.1779C21.3324 14.0075 21.4848 13.9717 21.6231 13.9029C21.7615 13.8342 21.882 13.7342 21.9753 13.6111C22.0685 13.4879 22.132 13.3447 22.1606 13.1929C22.1893 13.0411 22.1823 12.8847 22.1404 12.736L19.4554 3.228C19.3961 3.0183 19.27 2.8337 19.0961 2.70229C18.9223 2.57088 18.7103 2.49985 18.4924 2.5H9.99939C9.73417 2.5 9.47982 2.60536 9.29228 2.79289C9.10475 2.98043 8.99939 3.23478 8.99939 3.5V13.313Z" stroke="black" stroke-width="2" stroke-linecap="round" stroke-linejoin="round"/>
</g>
</svg>
